<svg width="76" height="106" viewBox="0 0 76 106" fill="none" xmlns="http://www.w3.org/2000/svg">
<path d="M27.758 96.4992C6.318 85.4492 -4.60199 60.8992 1.83801 37.5192C5.95801 22.5692 16.788 9.94922 31.268 3.98922C42.728 -0.740775 54.518 -1.26078 66.608 2.40922C79.068 6.18922 73.338 26.0692 60.368 22.8892C56.978 22.0592 53.208 21.9292 49.738 22.1192C36.998 22.8292 25.528 30.3792 22.998 43.4892C21.728 50.0492 22.998 57.0392 25.788 63.1192C26.088 63.7692 26.248 64.2892 26.258 64.6792C26.338 67.4692 22.728 68.1792 21.498 65.6092C18.408 59.1192 16.918 51.7392 17.828 44.5792C19.768 29.1392 32.218 18.9692 47.238 17.3992C51.828 16.9192 56.398 17.0692 60.938 17.8492C61.008 17.8592 61.058 17.8892 61.118 17.9292C61.228 18.0192 61.408 18.0892 61.638 18.1292C65.738 18.9292 68.608 15.7592 68.548 11.8492C68.508 9.32923 67.358 7.78922 64.958 7.08922C53.978 3.85922 43.378 4.35922 33.168 8.58922C13.408 16.7792 1.96801 37.9392 5.63801 58.9792C10.228 85.2992 36.248 102.289 62.258 95.7992C62.438 95.7492 63.108 95.6192 64.268 95.3892C72.138 93.8592 72.708 82.6792 64.818 80.6592C64.068 80.4692 62.878 80.3692 61.248 80.3792C52.998 80.3892 46.168 80.3792 40.758 80.3092C39.318 80.2992 38.898 79.1092 37.818 78.4492C35.038 76.7392 31.528 78.4292 31.128 81.6992C31.088 82.0492 31.058 82.4692 30.908 82.7792C29.638 85.4892 26.068 84.4792 26.138 81.4892C26.208 77.9892 26.278 74.4892 26.338 70.9892C26.358 69.9592 26.438 69.2592 26.568 68.8892C27.318 66.8192 30.308 66.8492 31.128 68.8892C31.258 69.2092 31.318 69.6692 31.308 70.2792C31.288 71.4092 31.268 72.5392 31.228 73.6692C31.228 73.7092 31.258 73.7292 31.288 73.7292H31.308C35.228 72.0892 38.768 72.6192 41.928 75.3392C41.968 75.3792 42.028 75.3992 42.088 75.3992C48.068 75.3892 54.038 75.3992 60.008 75.4092C62.308 75.4092 63.638 75.4392 64.018 75.4792C76.628 76.6692 79.608 93.2492 68.538 99.1392C68.488 99.1692 68.448 99.2292 68.458 99.2892C68.498 100.459 68.768 102.739 68.248 103.759C67.348 105.499 64.858 105.579 63.898 103.819C63.468 103.019 63.578 101.689 63.478 100.699C63.478 100.649 63.428 100.619 63.388 100.629C53.068 103.109 42.948 102.509 33.018 98.8492C32.988 98.8392 32.948 98.8492 32.938 98.8892V98.9092C33.008 100.119 33.078 101.319 33.138 102.529C33.208 103.849 32.968 104.779 31.838 105.399C29.878 106.469 28.228 104.789 28.168 102.769C28.128 101.279 28.018 99.2392 27.838 96.6492C27.838 96.5892 27.798 96.5292 27.738 96.4992H27.758Z" fill="#18355E"/>
</svg>
