<svg width="106" height="106" viewBox="0 0 106 106" fill="none" xmlns="http://www.w3.org/2000/svg">
<path d="M105.2 52.59C105.2 66.7 99.64 79.51 90.61 88.96C81.03 98.97 67.54 105.2 52.6 105.2C37.66 105.2 24.23 99 14.66 89.03C5.58 79.58 0 66.74 0 52.6C0 23.55 23.55 0 52.6 0C81.65 0 105.21 23.55 105.21 52.6L105.2 52.59Z" fill="#18355E"/>
<path d="M51.5199 23.2305L14.6599 89.0205C24.2299 98.9905 37.6899 105.19 52.5999 105.19C67.5099 105.19 81.0299 98.9605 90.6099 88.9505L51.5299 23.2305H51.5199Z" fill="#1B3C6B"/>
<path d="M26.18 51.7898C27.5 51.7898 28.5701 50.7197 28.5701 49.3998C28.5701 48.0798 27.5 47.0098 26.18 47.0098C24.8601 47.0098 23.79 48.0798 23.79 49.3998C23.79 50.7197 24.8601 51.7898 26.18 51.7898Z" fill="white"/>
<path d="M28.0001 55.6798C28.0401 56.2298 28.0801 56.7898 28.1801 57.3398C31.2901 74.9198 49.7701 78.6698 64.7201 71.1698C67.0201 68.7298 69.9401 71.7198 67.6501 74.1098C55.1201 84.2198 30.1501 80.0198 24.6401 60.4698C24.1401 58.4398 23.8601 56.7098 23.8201 55.2798C23.7501 53.1198 26.6101 52.4398 27.7201 54.3898C27.8601 54.6398 27.9601 55.0698 28.0001 55.6898V55.6798Z" fill="white"/>
<path d="M73.9401 76.2092C74.1901 76.9892 73.9401 77.8492 73.3201 78.3892C72.4401 79.1592 71.5201 79.8792 70.5801 80.5592C60.4401 87.7492 46.7301 89.1592 34.9301 83.0492C18.1101 74.3292 11.5501 53.6292 20.2601 36.8192C26.3801 25.0192 38.3901 18.2592 50.8201 18.2892C51.9801 18.2892 53.1501 18.3592 54.3101 18.4792C55.1301 18.5692 55.8201 19.1192 56.0701 19.8992C56.5101 21.2992 55.3801 22.7092 53.9301 22.5492C53.3301 22.4892 52.7301 22.4392 52.1301 22.4092C40.7101 21.8792 29.4901 27.8692 23.8901 38.6892C16.2101 53.4992 22.0001 71.7291 36.8101 79.3991C47.6201 84.9991 60.2501 83.4392 69.2701 76.4192C69.7401 76.0492 70.2101 75.6692 70.6601 75.2692C71.7601 74.2992 73.5001 74.7992 73.9401 76.1992V76.2092Z" fill="white"/>
<path d="M53.61 38.3105C53.61 38.3105 53.61 38.3205 53.61 38.3305C53.61 39.2505 52.87 39.9905 51.95 39.9905C51.03 39.9905 50.3 39.2605 50.29 38.3505L43.23 38.4405L51.75 23.2305L60.66 38.2205L53.6 38.3105H53.61Z" fill="white"/>
</svg>
