<svg width="109" height="112" viewBox="0 0 109 112" fill="none" xmlns="http://www.w3.org/2000/svg">
<path d="M3.20999 43.7585C3.88999 40.6385 4.84 37.6585 6.09 34.8385C8.85 28.5685 12.6 23.2085 17.32 18.7485C22.04 14.2985 27.64 10.8585 34.12 8.42852C37.37 7.20852 40.72 6.29851 44.18 5.68851C34.48 5.19851 24.81 4.01852 15.23 2.14852L4.73 0.0885235C3.89 -0.0714765 3 -0.031482 2.23 0.348518C0.909996 0.998518 0 2.35852 0 3.92852L1.97 24.6385C2.58 30.9985 2.96999 37.3785 3.20999 43.7685V43.7585Z" fill="#18355E"/>
<path d="M34.12 103.129C27.64 100.699 22.05 97.2588 17.32 92.8088C12.6 88.3588 8.85 82.9988 6.09 76.7188C4.84 73.8888 3.88999 70.9088 3.20999 67.7988C2.97999 74.1788 2.58 80.5588 1.97 86.9288L0 107.639C0 109.209 0.909996 110.569 2.23 111.219C3 111.599 3.89 111.639 4.73 111.479L14.09 109.649C24.21 107.669 34.44 106.439 44.69 105.959C41.05 105.349 37.53 104.419 34.12 103.139V103.129Z" fill="#18355E"/>
<path d="M106.95 25.1085L108.97 3.92852C108.97 2.35852 108.06 0.998518 106.74 0.348518C105.97 -0.031482 105.08 -0.0714765 104.24 0.0885235L93.74 2.14852C84.01 4.05852 74.17 5.24851 64.31 5.71851C67.36 6.30851 70.41 7.17851 73.48 8.32851C79.75 10.6885 85.25 14.4385 89.97 19.5585L82.48 27.0485C77.67 31.8585 70.27 32.6885 64.37 29.3185C64.34 29.2985 64.31 29.2785 64.28 29.2685C61.17 27.5185 58.01 26.6385 54.77 26.6385C50.32 26.6385 46.34 27.4485 42.83 29.0685C39.32 30.6885 36.32 32.8485 33.83 35.5485C31.33 38.2485 29.44 41.3485 28.16 44.8585C26.88 48.3685 26.24 52.0085 26.24 55.7885C26.24 59.5685 26.88 63.2085 28.16 66.7185C29.44 70.2285 31.33 73.3285 33.83 76.0285C36.32 78.7285 39.33 80.8885 42.83 82.4985C46.34 84.1185 50.32 84.9285 54.77 84.9285C56.91 84.9285 58.93 84.6985 60.85 84.2285C71.01 81.7485 81.72 84.5585 88.84 92.2185L89.78 93.2285C87.35 95.6585 84.55 97.7485 81.38 99.4985C78.21 101.259 75.01 102.669 71.77 103.749C68.83 104.729 66.01 105.439 63.29 105.919C73.88 106.359 84.44 107.599 94.88 109.639L104.24 111.469C105.08 111.629 105.97 111.589 106.74 111.209C108.06 110.559 108.97 109.199 108.97 107.629L106.95 86.4485C105 66.0485 105 45.5085 106.95 25.1085Z" fill="#18355E"/>
</svg>
