<svg width="141" height="141" viewBox="0 0 141 141" fill="none" xmlns="http://www.w3.org/2000/svg">
<path d="M19.21 43.7585C19.89 40.6385 20.84 37.6585 22.09 34.8385C24.85 28.5685 28.6 23.2085 33.32 18.7485C38.04 14.2985 43.64 10.8585 50.12 8.42852C53.37 7.20852 56.72 6.29851 60.18 5.68851C50.48 5.19851 40.81 4.01852 31.23 2.14852L20.73 0.0885235C19.89 -0.0714765 19 -0.031482 18.23 0.348518C16.91 0.998518 16 2.35852 16 3.92852L17.97 24.6385C18.58 30.9985 18.97 37.3785 19.21 43.7685V43.7585Z" fill="#18355E"/>
<path d="M50.12 103.129C43.64 100.699 38.05 97.2588 33.32 92.8088C28.6 88.3588 24.85 82.9988 22.09 76.7188C20.84 73.8888 19.89 70.9088 19.21 67.7988C18.98 74.1788 18.58 80.5588 17.97 86.9288L16 107.639C16 109.209 16.91 110.569 18.23 111.219C19 111.599 19.89 111.639 20.73 111.479L30.09 109.649C40.21 107.669 50.44 106.439 60.69 105.959C57.05 105.349 53.53 104.419 50.12 103.139V103.129Z" fill="#18355E"/>
<path d="M122.95 25.1085L124.97 3.92852C124.97 2.35852 124.06 0.998518 122.74 0.348518C121.97 -0.031482 121.08 -0.0714765 120.24 0.0885235L109.74 2.14852C100.01 4.05852 90.17 5.24851 80.31 5.71851C83.36 6.30851 86.41 7.17851 89.48 8.32851C95.75 10.6885 101.25 14.4385 105.97 19.5585L98.48 27.0485C93.67 31.8585 86.27 32.6885 80.37 29.3185C80.34 29.2985 80.31 29.2785 80.28 29.2685C77.17 27.5185 74.01 26.6385 70.77 26.6385C66.32 26.6385 62.34 27.4485 58.83 29.0685C55.32 30.6885 52.32 32.8485 49.83 35.5485C47.33 38.2485 45.44 41.3485 44.16 44.8585C42.88 48.3685 42.24 52.0085 42.24 55.7885C42.24 59.5685 42.88 63.2085 44.16 66.7185C45.44 70.2285 47.33 73.3285 49.83 76.0285C52.32 78.7285 55.33 80.8885 58.83 82.4985C62.34 84.1185 66.32 84.9285 70.77 84.9285C72.91 84.9285 74.93 84.6985 76.85 84.2285C87.01 81.7485 97.72 84.5585 104.84 92.2185L105.78 93.2285C103.35 95.6585 100.55 97.7485 97.38 99.4985C94.21 101.259 91.01 102.669 87.77 103.749C84.83 104.729 82.01 105.439 79.29 105.919C89.88 106.359 100.44 107.599 110.88 109.639L120.24 111.469C121.08 111.629 121.97 111.589 122.74 111.209C124.06 110.559 124.97 109.199 124.97 107.629L122.95 86.4485C121 66.0485 121 45.5085 122.95 25.1085Z" fill="#18355E"/>
<path d="M22.0896 128.07C23.5763 129.005 24.5043 130.297 24.8935 131.937H19.3754C19.2158 131.372 18.8765 130.931 18.3676 130.614C17.8587 130.297 17.2201 130.142 16.4418 130.142C15.5237 130.142 14.7754 130.421 14.1866 130.978C13.5979 131.534 13.2985 132.354 13.2985 133.421C13.2985 134.489 13.5879 135.309 14.1866 135.865C14.7754 136.422 15.5237 136.701 16.4418 136.701C17.2101 136.701 17.8587 136.546 18.3676 136.229C18.8765 135.912 19.2058 135.471 19.3754 134.906H24.8935C24.5043 136.546 23.5763 137.83 22.0896 138.773C20.6028 139.709 18.7667 140.181 16.5715 140.181C14.9051 140.181 13.4283 139.91 12.1311 139.369C10.8439 138.827 9.82605 138.039 9.09762 137.018C8.36919 135.997 8 134.798 8 133.421C8 132.045 8.35923 130.831 9.07767 129.818C9.79612 128.804 10.8139 128.023 12.1111 127.474C13.4083 126.925 14.8951 126.662 16.5615 126.662C18.7568 126.662 20.5928 127.134 22.0796 128.07H22.0896Z" fill="#18355E"/>
<path d="M40.1006 127.482C41.4277 128.023 42.4755 128.812 43.2438 129.833C44.0022 130.854 44.3913 132.053 44.3913 133.422C44.3913 134.79 44.0122 135.989 43.2438 137.018C42.4855 138.039 41.4377 138.828 40.1006 139.369C38.7735 139.91 37.2567 140.181 35.5704 140.181C33.884 140.181 32.3673 139.91 31.0302 139.369C29.6931 138.828 28.6354 138.039 27.877 137.018C27.1187 135.997 26.7295 134.798 26.7295 133.422C26.7295 132.045 27.1087 130.854 27.877 129.833C28.6354 128.812 29.6931 128.023 31.0302 127.482C32.3673 126.941 33.884 126.67 35.5704 126.67C37.2567 126.67 38.7635 126.941 40.1006 127.482ZM33.0558 131.001C32.3773 131.558 32.038 132.37 32.038 133.422C32.038 134.473 32.3773 135.278 33.0558 135.835C33.7344 136.384 34.5725 136.662 35.5704 136.662C36.5682 136.662 37.3965 136.384 38.075 135.835C38.7435 135.285 39.0828 134.481 39.0828 133.422C39.0828 132.362 38.7435 131.558 38.075 131.001C37.4064 130.444 36.5682 130.166 35.5704 130.166C34.5725 130.166 33.7344 130.444 33.0558 131.001Z" fill="#18355E"/>
<path d="M74.0871 128.194C75.2845 129.191 75.8832 130.583 75.8832 132.362V140.019H70.6944V132.834C70.6944 131.999 70.405 131.349 69.8263 130.885C69.2475 130.421 68.4592 130.189 67.4614 130.189C66.4636 130.189 65.6054 130.436 65.0067 130.931C64.408 131.426 64.1086 132.122 64.1086 133.02V140.019H58.8899V132.834C58.8899 131.999 58.6005 131.349 58.0318 130.885C57.463 130.421 56.6747 130.189 55.6868 130.189C54.699 130.189 53.8309 130.436 53.2122 130.924C52.6035 131.411 52.2942 132.115 52.2942 133.027V140.026H47.0754V126.84H52.2942V129.083C52.7432 128.341 53.4317 127.761 54.3497 127.335C55.2777 126.91 56.3554 126.693 57.5927 126.693C58.8301 126.693 60.0374 126.925 61.0353 127.389C62.0331 127.853 62.7815 128.518 63.2904 129.385C63.8791 128.565 64.6874 127.908 65.7152 127.42C66.743 126.933 67.8805 126.686 69.1178 126.686C71.2133 126.686 72.8597 127.188 74.0572 128.186L74.0871 128.194Z" fill="#18355E"/>
<path d="M87.7179 125.039C86.8598 125.039 86.2411 125.178 85.8619 125.464C85.4727 125.75 85.2632 126.207 85.2233 126.833H88.3066V130.236H85.2233V140.019H80.0046V130.236H77.959V126.833H80.0046V126.694C80.0046 125.054 80.6232 123.794 81.8506 122.904C83.0779 122.015 84.8641 121.566 87.199 121.566C87.688 121.566 88.0572 121.574 88.2966 121.59V125.062L87.7179 125.039Z" fill="#18355E"/>
<path d="M103.074 127.482C104.402 128.023 105.449 128.812 106.218 129.833C106.976 130.854 107.365 132.053 107.365 133.422C107.365 134.79 106.986 135.989 106.218 137.018C105.459 138.039 104.412 138.828 103.074 139.369C101.747 139.91 100.231 140.181 98.5443 140.181C96.8579 140.181 95.3412 139.91 94.0041 139.369C92.667 138.828 91.6092 138.039 90.8509 137.018C90.0925 135.997 89.7034 134.798 89.7034 133.422C89.7034 132.045 90.0825 130.854 90.8509 129.833C91.6092 128.812 92.667 128.023 94.0041 127.482C95.3412 126.941 96.8579 126.67 98.5443 126.67C100.231 126.67 101.737 126.941 103.074 127.482ZM96.0297 131.001C95.3512 131.558 95.0119 132.37 95.0119 133.422C95.0119 134.473 95.3512 135.278 96.0297 135.835C96.7082 136.384 97.5464 136.662 98.5443 136.662C99.5421 136.662 100.37 136.384 101.049 135.835C101.717 135.285 102.057 134.481 102.057 133.422C102.057 132.362 101.717 131.558 101.049 131.001C100.38 130.444 99.5421 130.166 98.5443 130.166C97.5464 130.166 96.7082 130.444 96.0297 131.001Z" fill="#18355E"/>
<path d="M117.803 127.397C118.831 126.925 119.938 126.686 121.146 126.686V131.009H119.649C118.262 131.009 117.194 131.241 116.436 131.697C115.677 132.153 115.288 132.927 115.288 134.009V140.011H110.07V126.825H115.288V129.307C115.937 128.503 116.775 127.869 117.803 127.389V127.397Z" fill="#18355E"/>
<path d="M132.97 136.548V140.02H130.625C128.629 140.02 127.083 139.642 125.975 138.876C124.868 138.11 124.309 136.85 124.309 135.086V130.245H122.024V126.842H124.309V123.602H129.527V126.842H132.94V130.245H129.527V135.164C129.527 135.682 129.667 136.045 129.937 136.254C130.216 136.455 130.675 136.563 131.324 136.563H132.97V136.548Z" fill="#18355E"/>
</svg>
