<svg width="210" height="153" viewBox="0 0 210 153" fill="none" xmlns="http://www.w3.org/2000/svg">
<path d="M157.545 52.59C157.545 66.7 151.985 79.51 142.955 88.96C133.375 98.97 119.885 105.2 104.945 105.2C90.005 105.2 76.575 99 67.005 89.03C57.925 79.58 52.345 66.74 52.345 52.6C52.345 23.55 75.895 0 104.945 0C133.995 0 157.555 23.55 157.555 52.6L157.545 52.59Z" fill="#18355E"/>
<path d="M103.865 23.2305L67.0049 89.0205C76.5749 98.9905 90.0349 105.19 104.945 105.19C119.855 105.19 133.375 98.9605 142.955 88.9505L103.875 23.2305H103.865Z" fill="#1B3C6B"/>
<path d="M78.525 51.7898C79.845 51.7898 80.915 50.7197 80.915 49.3998C80.915 48.0798 79.845 47.0098 78.525 47.0098C77.205 47.0098 76.135 48.0798 76.135 49.3998C76.135 50.7197 77.205 51.7898 78.525 51.7898Z" fill="white"/>
<path d="M80.3451 55.6798C80.3851 56.2298 80.4251 56.7898 80.5251 57.3398C83.6351 74.9198 102.115 78.6698 117.065 71.1698C119.365 68.7298 122.285 71.7198 119.995 74.1098C107.465 84.2198 82.4951 80.0198 76.9851 60.4698C76.4851 58.4398 76.2051 56.7098 76.1651 55.2798C76.0951 53.1198 78.9551 52.4398 80.0651 54.3898C80.2051 54.6398 80.3051 55.0698 80.3451 55.6898V55.6798Z" fill="white"/>
<path d="M126.285 76.2092C126.535 76.9892 126.285 77.8492 125.665 78.3892C124.785 79.1592 123.865 79.8792 122.925 80.5592C112.785 87.7492 99.075 89.1592 87.275 83.0492C70.455 74.3292 63.895 53.6292 72.605 36.8192C78.725 25.0192 90.735 18.2592 103.165 18.2892C104.325 18.2892 105.495 18.3592 106.655 18.4792C107.475 18.5692 108.165 19.1192 108.415 19.8992C108.855 21.2992 107.725 22.7092 106.275 22.5492C105.675 22.4892 105.075 22.4392 104.475 22.4092C93.055 21.8792 81.835 27.8692 76.235 38.6892C68.555 53.4992 74.345 71.7291 89.155 79.3991C99.965 84.9991 112.595 83.4392 121.615 76.4192C122.085 76.0492 122.555 75.6692 123.005 75.2692C124.105 74.2992 125.845 74.7992 126.285 76.1992V76.2092Z" fill="white"/>
<path d="M105.955 38.3105C105.955 38.3105 105.955 38.3205 105.955 38.3305C105.955 39.2505 105.215 39.9905 104.295 39.9905C103.375 39.9905 102.645 39.2605 102.635 38.3505L95.575 38.4405L104.095 23.2305L113.005 38.2205L105.945 38.3105H105.955Z" fill="white"/>
<path d="M12.97 152.479C11.96 152.479 11.05 152.389 10.24 152.219C8.96999 151.959 7.71999 151.499 6.48999 150.829C5.25999 150.159 4.17 149.299 3.2 148.229C2.24 147.159 1.45999 145.909 0.87999 144.479C0.28999 143.049 0 141.419 0 139.599C0 137.779 0.28999 136.189 0.87999 134.739C1.46999 133.289 2.24 132.039 3.2 130.969C4.16 129.899 5.25999 129.029 6.48999 128.349C7.71999 127.669 8.96999 127.199 10.24 126.939C10.64 126.849 11.08 126.799 11.54 126.769C12 126.739 12.48 126.729 12.97 126.729C14.1 126.729 15.23 126.879 16.35 127.159C17.48 127.449 18.56 127.899 19.58 128.499C20.61 129.109 21.56 129.899 22.44 130.889C23.32 131.869 24.07 133.059 24.67 134.449V134.409C25.1 135.389 24.83 136.159 23.85 136.709C23.27 136.969 22.81 137.009 22.46 136.819C22.11 136.629 21.82 136.359 21.59 136.019C21.13 134.949 20.56 134.039 19.88 133.289C19.2 132.539 18.48 131.929 17.71 131.469C16.94 131.009 16.15 130.679 15.32 130.469C14.5 130.269 13.71 130.169 12.96 130.169C12.64 130.169 12.29 130.179 11.92 130.209C11.54 130.239 11.2 130.279 10.88 130.339L10.92 130.299C10.05 130.499 9.18 130.839 8.3 131.319C7.42 131.799 6.61 132.419 5.89 133.179C5.17 133.939 4.57 134.859 4.11 135.929C3.65 136.999 3.42 138.219 3.42 139.609C3.42 140.999 3.65 142.309 4.11 143.379C4.57 144.449 5.16 145.359 5.87 146.109C6.58 146.859 7.38 147.459 8.28 147.909C9.18 148.359 10.06 148.669 10.93 148.839C11.62 149.009 12.32 149.099 13.01 149.099C13.76 149.099 14.55 148.979 15.37 148.749C16.19 148.519 16.98 148.159 17.73 147.689C18.48 147.209 19.19 146.609 19.86 145.889C20.53 145.169 21.09 144.299 21.55 143.289C21.81 142.909 22.13 142.619 22.5 142.419C22.88 142.219 23.32 142.259 23.84 142.549H23.8C24.75 143.069 25.06 143.809 24.71 144.759C24.13 146.119 23.39 147.279 22.5 148.259C21.6 149.229 20.63 150.029 19.57 150.659C18.51 151.289 17.42 151.759 16.27 152.069C15.13 152.379 14.02 152.529 12.95 152.529L12.97 152.479Z" fill="#18355E"/>
<path d="M41.4701 152.429C39.6801 152.429 38.0001 152.099 36.4401 151.429C34.8801 150.769 33.5101 149.849 32.3401 148.679C31.1701 147.509 30.2501 146.149 29.5901 144.589C28.9201 143.029 28.5901 141.359 28.5901 139.569C28.5901 137.779 28.9201 136.109 29.5901 134.549C30.2601 132.989 31.1701 131.629 32.3401 130.459C33.5101 129.289 34.8801 128.369 36.4401 127.709C38.0001 127.049 39.6801 126.709 41.4701 126.709C43.2601 126.709 44.9401 127.039 46.5001 127.709C48.0601 128.379 49.4301 129.289 50.6001 130.459C51.7701 131.629 52.7001 132.989 53.3801 134.549C54.0601 136.109 54.4001 137.779 54.4001 139.569C54.4001 141.359 54.0601 143.029 53.3801 144.589C52.7001 146.149 51.7801 147.509 50.6001 148.679C49.4301 149.849 48.0601 150.769 46.5001 151.429C44.9401 152.089 43.2601 152.429 41.4701 152.429ZM41.4701 130.129C40.1701 130.129 38.9501 130.379 37.8001 130.869C36.6601 131.359 35.6501 132.029 34.7901 132.879C33.9201 133.729 33.2401 134.729 32.7501 135.869C32.2601 137.009 32.0101 138.229 32.0101 139.529C32.0101 140.829 32.2601 142.059 32.7501 143.209C33.2401 144.359 33.9201 145.369 34.7901 146.219C35.6601 147.069 36.6601 147.749 37.8001 148.249C38.9401 148.749 40.1601 149.009 41.4701 149.009C42.7801 149.009 44.0001 148.759 45.1601 148.249C46.3201 147.749 47.3301 147.069 48.2001 146.219C49.0701 145.369 49.7501 144.369 50.2401 143.209C50.7301 142.059 50.9801 140.829 50.9801 139.529C50.9801 138.229 50.7301 137.009 50.2401 135.869C49.7501 134.729 49.0701 133.739 48.2001 132.879C47.3301 132.029 46.3201 131.359 45.1601 130.869C44.0001 130.379 42.7701 130.129 41.4701 130.129Z" fill="#18355E"/>
<path d="M93.74 126.67C95.53 126.67 97.21 127.01 98.77 127.69C100.33 128.37 101.7 129.29 102.87 130.46C104.04 131.63 104.97 132.99 105.65 134.55C106.33 136.11 106.67 137.77 106.67 139.53V150.7C106.67 151.13 106.53 151.53 106.24 151.89C105.95 152.25 105.53 152.43 104.98 152.43C103.82 152.43 103.24 151.85 103.24 150.69V139.5C103.24 138.2 102.99 136.98 102.5 135.83C102.01 134.69 101.33 133.69 100.46 132.84C99.59 131.99 98.58 131.32 97.42 130.82C96.26 130.33 95.03 130.08 93.73 130.08C92.43 130.08 91.21 130.33 90.06 130.82C88.92 131.31 87.91 131.98 87.05 132.84C86.18 133.69 85.5 134.69 85.01 135.83C84.52 136.97 84.27 138.19 84.27 139.5V150.69C84.27 151.85 83.71 152.43 82.58 152.43C81.45 152.43 80.84 151.85 80.84 150.69V139.5C80.84 138.2 80.59 136.98 80.08 135.83C79.57 134.69 78.89 133.69 78.04 132.84C77.19 131.99 76.18 131.32 75.02 130.82C73.86 130.33 72.63 130.08 71.33 130.08C70.03 130.08 68.81 130.33 67.66 130.82C66.52 131.31 65.52 131.98 64.67 132.84C63.82 133.7 63.14 134.69 62.65 135.83C62.16 136.97 61.91 138.19 61.91 139.5V150.69C61.91 151.85 61.33 152.43 60.17 152.43C59.01 152.43 58.48 151.85 58.48 150.7V128.4C58.48 127.24 59.04 126.67 60.17 126.67C61.3 126.67 61.91 127.25 61.91 128.4V130.83C63.1 129.5 64.49 128.47 66.1 127.75C67.7 127.03 69.45 126.67 71.33 126.67C73.85 126.67 76.06 127.25 77.99 128.4C79.91 129.56 81.42 131.11 82.52 133.04C83.07 132.12 83.75 131.26 84.56 130.48C85.37 129.7 86.26 129.03 87.23 128.46C88.2 127.9 89.23 127.46 90.33 127.14C91.43 126.82 92.56 126.66 93.71 126.66L93.74 126.67Z" fill="#18355E"/>
<path d="M135.81 130.01C136.27 130.99 135.97 131.73 134.9 132.22H134.94C134.42 132.48 133.97 132.52 133.6 132.33C133.22 132.14 132.92 131.87 132.69 131.53C132.2 130.46 131.62 129.55 130.95 128.8C130.28 128.05 129.56 127.44 128.78 126.98C128 126.52 127.2 126.18 126.39 125.98C125.58 125.78 124.78 125.68 124 125.68C123.68 125.68 123.36 125.7 123.05 125.75C122.73 125.79 122.38 125.84 122.01 125.9H122.05C121.27 126.07 120.48 126.36 119.69 126.75C118.89 127.14 118.16 127.65 117.48 128.29C116.8 128.93 116.2 129.68 115.68 130.55C115.16 131.42 114.8 132.39 114.6 133.46H126.18C127.31 133.46 127.87 134.04 127.87 135.2C127.87 135.66 127.73 136.06 127.46 136.39C127.18 136.72 126.76 136.89 126.18 136.89H114.51V150.81C114.51 151.94 113.92 152.5 112.75 152.5C112.26 152.5 111.86 152.34 111.55 152.02C111.24 151.7 111.08 151.3 111.08 150.81V135.19C111.08 133.37 111.37 131.73 111.96 130.29C112.55 128.84 113.32 127.59 114.28 126.54C115.24 125.48 116.34 124.62 117.57 123.94C118.8 123.26 120.05 122.79 121.32 122.53C122.13 122.36 123.03 122.27 124.01 122.27C125.14 122.27 126.27 122.41 127.39 122.7C128.52 122.99 129.6 123.45 130.64 124.09C131.68 124.73 132.64 125.54 133.52 126.54C134.4 127.54 135.16 128.75 135.8 130.16V130.03L135.81 130.01Z" fill="#18355E"/>
<path d="M152.38 152.429C150.59 152.429 148.91 152.099 147.35 151.429C145.79 150.769 144.42 149.849 143.25 148.679C142.08 147.509 141.16 146.149 140.5 144.589C139.83 143.029 139.5 141.359 139.5 139.569C139.5 137.779 139.83 136.109 140.5 134.549C141.17 132.989 142.08 131.629 143.25 130.459C144.42 129.289 145.79 128.369 147.35 127.709C148.91 127.049 150.59 126.709 152.38 126.709C154.17 126.709 155.85 127.039 157.41 127.709C158.97 128.379 160.34 129.289 161.51 130.459C162.68 131.629 163.61 132.989 164.29 134.549C164.97 136.109 165.31 137.779 165.31 139.569C165.31 141.359 164.97 143.029 164.29 144.589C163.61 146.149 162.69 147.509 161.51 148.679C160.34 149.849 158.97 150.769 157.41 151.429C155.85 152.089 154.17 152.429 152.38 152.429ZM152.38 130.129C151.08 130.129 149.86 130.379 148.71 130.869C147.57 131.359 146.56 132.029 145.7 132.879C144.83 133.729 144.15 134.729 143.66 135.869C143.17 137.009 142.92 138.229 142.92 139.529C142.92 140.829 143.17 142.059 143.66 143.209C144.15 144.359 144.83 145.369 145.7 146.219C146.57 147.069 147.57 147.749 148.71 148.249C149.85 148.749 151.07 149.009 152.38 149.009C153.69 149.009 154.91 148.759 156.07 148.249C157.23 147.749 158.24 147.069 159.11 146.219C159.98 145.369 160.66 144.369 161.15 143.209C161.64 142.059 161.89 140.829 161.89 139.529C161.89 138.229 161.64 137.009 161.15 135.869C160.66 134.729 159.98 133.739 159.11 132.879C158.24 132.029 157.23 131.359 156.07 130.869C154.91 130.379 153.68 130.129 152.38 130.129Z" fill="#18355E"/>
<path d="M181.32 126.619C183.17 126.619 184.99 127.079 186.78 128.009C188.57 128.939 190.22 130.309 191.73 132.129C191.87 132.509 191.89 132.879 191.77 133.259C191.65 133.639 191.45 133.939 191.16 134.169H191.2C190.71 134.599 190.28 134.759 189.92 134.649C189.56 134.529 189.17 134.259 188.77 133.829C187.84 132.669 186.72 131.749 185.41 131.079C184.09 130.399 182.74 130.059 181.35 130.059C180.83 130.059 180.31 130.089 179.79 130.149C179.27 130.209 178.75 130.319 178.23 130.499C176.23 131.169 174.65 132.319 173.48 133.959C172.31 135.599 171.72 137.449 171.72 139.499V150.759C171.72 151.249 171.57 151.659 171.29 151.979C171 152.299 170.58 152.459 170.03 152.459C169.6 152.459 169.2 152.299 168.84 151.979C168.48 151.659 168.3 151.259 168.3 150.769V128.389C168.3 127.259 168.88 126.699 170.04 126.699C170.59 126.699 171.01 126.859 171.3 127.179C171.59 127.499 171.73 127.899 171.73 128.389V130.779C173.18 129.249 174.97 128.119 177.11 127.399C178.47 126.909 179.87 126.659 181.32 126.659V126.619ZM191.51 131.829C191.6 131.949 191.67 132.059 191.73 132.179L191.51 131.829Z" fill="#18355E"/>
<path d="M208.2 126.709C208.69 126.709 209.1 126.869 209.42 127.179C209.74 127.489 209.9 127.889 209.9 128.379C209.9 128.839 209.74 129.239 209.42 129.599C209.1 129.959 208.69 130.139 208.19 130.139H203.14V150.739C203.14 151.869 202.55 152.429 201.38 152.429C200.89 152.429 200.49 152.269 200.18 151.949C199.87 151.629 199.71 151.229 199.71 150.739V130.139H194.72C193.59 130.139 193.03 129.559 193.03 128.379C193.03 127.889 193.17 127.489 193.45 127.179C193.73 126.869 194.16 126.709 194.74 126.709H199.76V123.909C199.76 123.409 199.92 123.009 200.23 122.679C200.54 122.349 200.94 122.199 201.43 122.199C202.6 122.199 203.19 122.769 203.19 123.909V126.709H208.21H208.2Z" fill="#18355E"/>
</svg>
