<svg width="130" height="144" viewBox="0 0 130 144" fill="none" xmlns="http://www.w3.org/2000/svg">
<path d="M54.7487 96.4992C33.3087 85.4492 22.3887 60.8992 28.8287 37.5192C32.9487 22.5692 43.7787 9.94922 58.2587 3.98922C69.7187 -0.740775 81.5087 -1.26078 93.5987 2.40922C106.059 6.18922 100.329 26.0692 87.3587 22.8892C83.9687 22.0592 80.1987 21.9292 76.7287 22.1192C63.9887 22.8292 52.5187 30.3792 49.9887 43.4892C48.7187 50.0492 49.9887 57.0392 52.7787 63.1192C53.0787 63.7692 53.2387 64.2892 53.2487 64.6792C53.3287 67.4692 49.7187 68.1792 48.4887 65.6092C45.3987 59.1192 43.9087 51.7392 44.8187 44.5792C46.7587 29.1392 59.2087 18.9692 74.2287 17.3992C78.8187 16.9192 83.3887 17.0692 87.9287 17.8492C87.9987 17.8592 88.0487 17.8892 88.1087 17.9292C88.2187 18.0192 88.3987 18.0892 88.6287 18.1292C92.7287 18.9292 95.5987 15.7592 95.5387 11.8492C95.4987 9.32923 94.3487 7.78922 91.9487 7.08922C80.9687 3.85922 70.3687 4.35922 60.1587 8.58922C40.3987 16.7792 28.9587 37.9392 32.6287 58.9792C37.2187 85.2992 63.2387 102.289 89.2487 95.7992C89.4287 95.7492 90.0987 95.6192 91.2587 95.3892C99.1287 93.8592 99.6987 82.6792 91.8087 80.6592C91.0587 80.4692 89.8687 80.3692 88.2387 80.3792C79.9887 80.3892 73.1587 80.3792 67.7487 80.3092C66.3087 80.2992 65.8887 79.1092 64.8087 78.4492C62.0287 76.7392 58.5187 78.4292 58.1187 81.6992C58.0787 82.0492 58.0487 82.4692 57.8987 82.7792C56.6287 85.4892 53.0587 84.4792 53.1287 81.4892C53.1987 77.9892 53.2687 74.4892 53.3287 70.9892C53.3487 69.9592 53.4287 69.2592 53.5587 68.8892C54.3087 66.8192 57.2987 66.8492 58.1187 68.8892C58.2487 69.2092 58.3087 69.6692 58.2987 70.2792C58.2787 71.4092 58.2587 72.5392 58.2187 73.6692C58.2187 73.7092 58.2487 73.7292 58.2787 73.7292H58.2987C62.2187 72.0892 65.7587 72.6192 68.9187 75.3392C68.9587 75.3792 69.0187 75.3992 69.0787 75.3992C75.0587 75.3892 81.0287 75.3992 86.9987 75.4092C89.2987 75.4092 90.6287 75.4392 91.0087 75.4792C103.619 76.6692 106.599 93.2492 95.5287 99.1392C95.4787 99.1692 95.4387 99.2292 95.4487 99.2892C95.4887 100.459 95.7587 102.739 95.2387 103.759C94.3387 105.499 91.8487 105.579 90.8887 103.819C90.4587 103.019 90.5687 101.689 90.4687 100.699C90.4687 100.649 90.4187 100.619 90.3787 100.629C80.0587 103.109 69.9387 102.509 60.0087 98.8492C59.9787 98.8392 59.9387 98.8492 59.9287 98.8892V98.9092C59.9987 100.119 60.0687 101.319 60.1287 102.529C60.1987 103.849 59.9587 104.779 58.8287 105.399C56.8687 106.469 55.2187 104.789 55.1587 102.769C55.1187 101.279 55.0087 99.2392 54.8287 96.6492C54.8287 96.5892 54.7887 96.5292 54.7287 96.4992H54.7487Z" fill="#18355E"/>
<path d="M17.34 123.943C19.14 125.393 20.31 127.343 20.84 129.813H15.31C14.9 128.813 14.28 128.033 13.43 127.463C12.58 126.893 11.58 126.603 10.42 126.603C8.89 126.603 7.66 127.163 6.72 128.283C5.78 129.403 5.31 130.903 5.31 132.773C5.31 134.643 5.78 136.143 6.72 137.253C7.66 138.363 8.89 138.923 10.42 138.923C11.58 138.923 12.59 138.633 13.43 138.063C14.27 137.493 14.9 136.723 15.31 135.743H20.84C20.31 138.183 19.14 140.143 17.34 141.593C15.54 143.053 13.26 143.783 10.51 143.783C8.40999 143.783 6.57 143.323 4.98 142.393C3.39 141.463 2.16 140.163 1.3 138.493C0.430003 136.823 0 134.913 0 132.783C0 130.653 0.430003 128.743 1.3 127.073C2.17 125.403 3.39 124.103 4.98 123.173C6.57 122.243 8.40999 121.783 10.51 121.783C13.26 121.783 15.54 122.503 17.34 123.953V123.943Z" fill="#18355E"/>
<path d="M36.2799 127.382C37.6099 128.082 38.6599 129.102 39.4299 130.422C40.1899 131.742 40.5799 133.292 40.5799 135.062C40.5799 136.832 40.1999 138.382 39.4299 139.712C38.6699 141.032 37.6199 142.052 36.2799 142.752C34.9499 143.452 33.4299 143.802 31.7399 143.802C30.0499 143.802 28.5299 143.452 27.1899 142.752C25.8499 142.052 24.7899 141.032 24.0299 139.712C23.2699 138.392 22.8799 136.842 22.8799 135.062C22.8799 133.282 23.2599 131.742 24.0299 130.422C24.7899 129.102 25.8499 128.082 27.1899 127.382C28.5299 126.682 30.0499 126.332 31.7399 126.332C33.4299 126.332 34.9399 126.682 36.2799 127.382ZM29.2199 131.932C28.5399 132.652 28.1999 133.702 28.1999 135.062C28.1999 136.422 28.5399 137.462 29.2199 138.182C29.8999 138.892 30.7399 139.252 31.7399 139.252C32.7399 139.252 33.5699 138.892 34.2499 138.182C34.9199 137.472 35.2599 136.432 35.2599 135.062C35.2599 133.692 34.9199 132.652 34.2499 131.932C33.5799 131.212 32.7399 130.852 31.7399 130.852C30.7399 130.852 29.8999 131.212 29.2199 131.932Z" fill="#18355E"/>
<path d="M70.34 128.302C71.54 129.592 72.14 131.392 72.14 133.692V143.592H66.94V134.302C66.94 133.222 66.65 132.382 66.07 131.782C65.49 131.182 64.7 130.882 63.7 130.882C62.7 130.882 61.84 131.202 61.24 131.842C60.64 132.482 60.34 133.382 60.34 134.542V143.592H55.11V134.302C55.11 133.222 54.82 132.382 54.25 131.782C53.68 131.182 52.89 130.882 51.9 130.882C50.91 130.882 50.04 131.202 49.42 131.832C48.81 132.462 48.5 133.372 48.5 134.552V143.602H43.27V126.552H48.5V129.452C48.95 128.492 49.64 127.742 50.56 127.192C51.49 126.642 52.57 126.362 53.81 126.362C55.05 126.362 56.26 126.662 57.26 127.262C58.26 127.862 59.01 128.722 59.52 129.842C60.11 128.782 60.92 127.932 61.95 127.302C62.98 126.672 64.12 126.352 65.36 126.352C67.46 126.352 69.11 127.002 70.31 128.292L70.34 128.302Z" fill="#18355E"/>
<path d="M84 124.222C83.14 124.222 82.52 124.402 82.14 124.772C81.75 125.142 81.54 125.732 81.5 126.542H84.59V130.942H81.5V143.592H76.27V130.942H74.22V126.542H76.27V126.362C76.27 124.242 76.89 122.612 78.12 121.462C79.35 120.312 81.14 119.732 83.48 119.732C83.97 119.732 84.34 119.742 84.58 119.762V124.252L84 124.222Z" fill="#18355E"/>
<path d="M99.39 127.382C100.72 128.082 101.77 129.102 102.54 130.422C103.3 131.742 103.69 133.292 103.69 135.062C103.69 136.832 103.31 138.382 102.54 139.712C101.78 141.032 100.73 142.052 99.39 142.752C98.06 143.452 96.54 143.802 94.85 143.802C93.16 143.802 91.64 143.452 90.3 142.752C88.96 142.052 87.9 141.032 87.14 139.712C86.38 138.392 85.99 136.842 85.99 135.062C85.99 133.282 86.37 131.742 87.14 130.422C87.9 129.102 88.96 128.082 90.3 127.382C91.64 126.682 93.16 126.332 94.85 126.332C96.54 126.332 98.05 126.682 99.39 127.382ZM92.33 131.932C91.65 132.652 91.31 133.702 91.31 135.062C91.31 136.422 91.65 137.462 92.33 138.182C93.01 138.892 93.85 139.252 94.85 139.252C95.85 139.252 96.68 138.892 97.36 138.182C98.03 137.472 98.37 136.432 98.37 135.062C98.37 133.692 98.03 132.652 97.36 131.932C96.69 131.212 95.85 130.852 94.85 130.852C93.85 130.852 93.01 131.212 92.33 131.932Z" fill="#18355E"/>
<path d="M114.15 127.272C115.18 126.662 116.29 126.352 117.5 126.352V131.942H116C114.61 131.942 113.54 132.242 112.78 132.832C112.02 133.422 111.63 134.422 111.63 135.822V143.582H106.4V126.532H111.63V129.742C112.28 128.702 113.12 127.882 114.15 127.262V127.272Z" fill="#18355E"/>
<path d="M129.36 139.103V143.593H127.01C125.01 143.593 123.46 143.103 122.35 142.113C121.24 141.123 120.68 139.493 120.68 137.213V130.953H118.39V126.553H120.68V122.363H125.91V126.553H129.33V130.953H125.91V137.313C125.91 137.983 126.05 138.453 126.32 138.723C126.6 138.983 127.06 139.123 127.71 139.123H129.36V139.103Z" fill="#18355E"/>
</svg>
