<svg width="422" height="106" viewBox="0 0 422 106" fill="none" xmlns="http://www.w3.org/2000/svg">
<path d="M27.758 96.4992C6.318 85.4492 -4.60199 60.8992 1.83801 37.5192C5.95801 22.5692 16.788 9.94922 31.268 3.98922C42.728 -0.740775 54.518 -1.26078 66.608 2.40922C79.068 6.18922 73.338 26.0692 60.368 22.8892C56.978 22.0592 53.208 21.9292 49.738 22.1192C36.998 22.8292 25.528 30.3792 22.998 43.4892C21.728 50.0492 22.998 57.0392 25.788 63.1192C26.088 63.7692 26.248 64.2892 26.258 64.6792C26.338 67.4692 22.728 68.1792 21.498 65.6092C18.408 59.1192 16.918 51.7392 17.828 44.5792C19.768 29.1392 32.218 18.9692 47.238 17.3992C51.828 16.9192 56.398 17.0692 60.938 17.8492C61.008 17.8592 61.058 17.8892 61.118 17.9292C61.228 18.0192 61.408 18.0892 61.638 18.1292C65.738 18.9292 68.608 15.7592 68.548 11.8492C68.508 9.32923 67.358 7.78922 64.958 7.08922C53.978 3.85922 43.378 4.35922 33.168 8.58922C13.408 16.7792 1.96801 37.9392 5.63801 58.9792C10.228 85.2992 36.248 102.289 62.258 95.7992C62.438 95.7492 63.108 95.6192 64.268 95.3892C72.138 93.8592 72.708 82.6792 64.818 80.6592C64.068 80.4692 62.878 80.3692 61.248 80.3792C52.998 80.3892 46.168 80.3792 40.758 80.3092C39.318 80.2992 38.898 79.1092 37.818 78.4492C35.038 76.7392 31.528 78.4292 31.128 81.6992C31.088 82.0492 31.058 82.4692 30.908 82.7792C29.638 85.4892 26.068 84.4792 26.138 81.4892C26.208 77.9892 26.278 74.4892 26.338 70.9892C26.358 69.9592 26.438 69.2592 26.568 68.8892C27.318 66.8192 30.308 66.8492 31.128 68.8892C31.258 69.2092 31.318 69.6692 31.308 70.2792C31.288 71.4092 31.268 72.5392 31.228 73.6692C31.228 73.7092 31.258 73.7292 31.288 73.7292H31.308C35.228 72.0892 38.768 72.6192 41.928 75.3392C41.968 75.3792 42.028 75.3992 42.088 75.3992C48.068 75.3892 54.038 75.3992 60.008 75.4092C62.308 75.4092 63.638 75.4392 64.018 75.4792C76.628 76.6692 79.608 93.2492 68.538 99.1392C68.488 99.1692 68.448 99.2292 68.458 99.2892C68.498 100.459 68.768 102.739 68.248 103.759C67.348 105.499 64.858 105.579 63.898 103.819C63.468 103.019 63.578 101.689 63.478 100.699C63.478 100.649 63.428 100.619 63.388 100.629C53.068 103.109 42.948 102.509 33.018 98.8492C32.988 98.8392 32.948 98.8492 32.938 98.8892V98.9092C33.008 100.119 33.078 101.319 33.138 102.529C33.208 103.849 32.968 104.779 31.838 105.399C29.878 106.469 28.228 104.789 28.168 102.769C28.128 101.279 28.018 99.2392 27.838 96.6492C27.838 96.5892 27.798 96.5292 27.738 96.4992H27.758Z" fill="#18355E"/>
<path d="M133.849 32.8012C138.465 36.5199 141.466 41.5209 142.825 47.8555H128.643C127.591 45.2909 126.001 43.2905 123.821 41.8287C121.641 40.3669 119.077 39.6231 116.102 39.6231C112.178 39.6231 109.024 41.0593 106.613 43.9317C104.202 46.804 102.997 50.6509 102.997 55.4467C102.997 60.2426 104.202 64.0895 106.613 66.9362C109.024 69.7829 112.178 71.2191 116.102 71.2191C119.077 71.2191 121.667 70.4754 123.821 69.0136C125.976 67.5517 127.591 65.577 128.643 63.0636H142.825C141.466 69.3213 138.465 74.3479 133.849 78.0666C129.233 81.811 123.385 83.6831 116.333 83.6831C110.947 83.6831 106.228 82.5034 102.15 80.1183C98.0727 77.7332 94.9182 74.3992 92.7127 70.1163C90.4815 65.8334 89.3787 60.935 89.3787 55.4724C89.3787 50.0098 90.4815 45.1113 92.7127 40.8284C94.9439 36.5455 98.0727 33.2116 102.15 30.8265C106.228 28.4414 110.947 27.2617 116.333 27.2617C123.385 27.2617 129.233 29.1082 133.849 32.8269V32.8012Z" fill="#18355E"/>
<path d="M182.423 41.6205C185.834 43.4158 188.527 46.0317 190.501 49.417C192.451 52.8023 193.451 56.7774 193.451 61.3168C193.451 65.8562 192.476 69.8313 190.501 73.2422C188.552 76.6275 185.859 79.2434 182.423 81.0387C179.012 82.8339 175.114 83.7315 170.78 83.7315C166.445 83.7315 162.547 82.8339 159.111 81.0387C155.674 79.2434 152.956 76.6275 151.006 73.2422C149.057 69.8569 148.057 65.8818 148.057 61.3168C148.057 56.7518 149.032 52.8023 151.006 49.417C152.956 46.0317 155.674 43.4158 159.111 41.6205C162.547 39.8253 166.445 38.9277 170.78 38.9277C175.114 38.9277 178.986 39.8253 182.423 41.6205ZM164.317 53.2896C162.573 55.1361 161.701 57.8289 161.701 61.3168C161.701 64.8047 162.573 67.4719 164.317 69.3184C166.061 71.1392 168.215 72.0625 170.78 72.0625C173.344 72.0625 175.473 71.1392 177.217 69.3184C178.935 67.4975 179.807 64.8303 179.807 61.3168C179.807 57.8033 178.935 55.1361 177.217 53.2896C175.498 51.443 173.344 50.5197 170.78 50.5197C168.215 50.5197 166.061 51.443 164.317 53.2896Z" fill="#18355E"/>
<path d="M269.773 43.9776C272.851 47.2859 274.39 51.9022 274.39 57.8008V83.1905H261.054V59.3652C261.054 56.5955 260.31 54.4412 258.822 52.9025C257.335 51.3637 255.309 50.5942 252.744 50.5942C250.18 50.5942 247.974 51.415 246.435 53.0563C244.897 54.6977 244.127 57.0058 244.127 59.9807V83.1905H230.714V59.3652C230.714 56.5955 229.971 54.4412 228.509 52.9025C227.047 51.3637 225.021 50.5942 222.482 50.5942C219.943 50.5942 217.712 51.4149 216.122 53.0306C214.557 54.6464 213.762 56.9802 213.762 60.0064V83.2161H200.349V39.4895H213.762V46.9269C214.916 44.4648 216.686 42.5414 219.045 41.1308C221.43 39.7203 224.2 39.0022 227.38 39.0022C230.56 39.0022 233.664 39.7716 236.228 41.3104C238.793 42.8491 240.716 45.0547 242.024 47.9271C243.537 45.2086 245.615 43.0287 248.256 41.413C250.898 39.7973 253.821 38.9766 257.002 38.9766C262.387 38.9766 266.619 40.6436 269.696 43.9519L269.773 43.9776Z" fill="#18355E"/>
<path d="M304.806 33.5171C302.6 33.5171 301.01 33.9787 300.036 34.9276C299.035 35.8765 298.497 37.3896 298.394 39.4669H306.319V50.7512H298.394V83.1936H284.981V50.7512H279.724V39.4669H284.981V39.0053C284.981 33.5684 286.571 29.3881 289.726 26.4388C292.88 23.4895 297.471 22.002 303.472 22.002C304.729 22.002 305.678 22.0276 306.293 22.0789V33.594L304.806 33.5171Z" fill="#18355E"/>
<path d="M344.275 41.6205C347.686 43.4158 350.379 46.0317 352.354 49.417C354.303 52.8023 355.303 56.7774 355.303 61.3168C355.303 65.8562 354.328 69.8313 352.354 73.2422C350.405 76.6275 347.712 79.2434 344.275 81.0387C340.864 82.8339 336.966 83.7315 332.632 83.7315C328.298 83.7315 324.399 82.8339 320.963 81.0387C317.526 79.2434 314.808 76.6275 312.859 73.2422C310.91 69.8569 309.909 65.8818 309.909 61.3168C309.909 56.7518 310.884 52.8023 312.859 49.417C314.808 46.0317 317.526 43.4158 320.963 41.6205C324.399 39.8253 328.298 38.9277 332.632 38.9277C336.966 38.9277 340.839 39.8253 344.275 41.6205ZM326.169 53.2896C324.425 55.1361 323.553 57.8289 323.553 61.3168C323.553 64.8047 324.425 67.4719 326.169 69.3184C327.913 71.1392 330.067 72.0625 332.632 72.0625C335.196 72.0625 337.325 71.1392 339.069 69.3184C340.787 67.4975 341.659 64.8303 341.659 61.3168C341.659 57.8033 340.787 55.1361 339.069 53.2896C337.351 51.443 335.196 50.5197 332.632 50.5197C330.067 50.5197 327.913 51.443 326.169 53.2896Z" fill="#18355E"/>
<path d="M382.129 41.336C384.77 39.7716 387.617 38.9766 390.72 38.9766V53.3127H386.873C383.308 53.3127 380.564 54.0821 378.615 55.5953C376.666 57.1084 375.666 59.673 375.666 63.2634V83.1648H362.253V39.4383H375.666V47.6706C377.333 45.0034 379.487 42.9004 382.129 41.3104V41.336Z" fill="#18355E"/>
<path d="M421.136 71.6815V83.1967H415.109C409.98 83.1967 406.005 81.94 403.158 79.401C400.312 76.8621 398.875 72.6818 398.875 66.8345V50.78H393.002V39.4957H398.875V28.75H412.288V39.4957H421.059V50.78H412.288V67.0909C412.288 68.8092 412.647 70.0146 413.34 70.707C414.058 71.3738 415.238 71.7329 416.905 71.7329H421.136V71.6815Z" fill="#18355E"/>
</svg>
