<svg width="641" height="112" viewBox="0 0 641 112" fill="none" xmlns="http://www.w3.org/2000/svg">
<path d="M11.21 43.7585C11.89 40.6385 12.84 37.6585 14.09 34.8385C16.85 28.5685 20.6 23.2085 25.32 18.7485C30.04 14.2985 35.64 10.8585 42.12 8.42852C45.37 7.20852 48.72 6.29851 52.18 5.68851C42.48 5.19851 32.81 4.01852 23.23 2.14852L12.73 0.0885235C11.89 -0.0714765 11 -0.031482 10.23 0.348518C8.91 0.998518 8 2.35852 8 3.92852L9.97 24.6385C10.58 30.9985 10.97 37.3785 11.21 43.7685V43.7585Z" fill="#18355E"/>
<path d="M42.12 103.129C35.64 100.699 30.05 97.2588 25.32 92.8088C20.6 88.3588 16.85 82.9988 14.09 76.7188C12.84 73.8888 11.89 70.9088 11.21 67.7988C10.98 74.1788 10.58 80.5588 9.97 86.9288L8 107.639C8 109.209 8.91 110.569 10.23 111.219C11 111.599 11.89 111.639 12.73 111.479L22.09 109.649C32.21 107.669 42.44 106.439 52.69 105.959C49.05 105.349 45.53 104.419 42.12 103.139V103.129Z" fill="#18355E"/>
<path d="M114.95 25.1085L116.97 3.92852C116.97 2.35852 116.06 0.998518 114.74 0.348518C113.97 -0.031482 113.08 -0.0714765 112.24 0.0885235L101.74 2.14852C92.01 4.05852 82.17 5.24851 72.31 5.71851C75.36 6.30851 78.41 7.17851 81.48 8.32851C87.75 10.6885 93.25 14.4385 97.97 19.5585L90.48 27.0485C85.67 31.8585 78.27 32.6885 72.37 29.3185C72.34 29.2985 72.31 29.2785 72.28 29.2685C69.17 27.5185 66.01 26.6385 62.77 26.6385C58.32 26.6385 54.34 27.4485 50.83 29.0685C47.32 30.6885 44.32 32.8485 41.83 35.5485C39.33 38.2485 37.44 41.3485 36.16 44.8585C34.88 48.3685 34.24 52.0085 34.24 55.7885C34.24 59.5685 34.88 63.2085 36.16 66.7185C37.44 70.2285 39.33 73.3285 41.83 76.0285C44.32 78.7285 47.33 80.8885 50.83 82.4985C54.34 84.1185 58.32 84.9285 62.77 84.9285C64.91 84.9285 66.93 84.6985 68.85 84.2285C79.01 81.7485 89.72 84.5585 96.84 92.2185L97.78 93.2285C95.35 95.6585 92.55 97.7485 89.38 99.4985C86.21 101.259 83.01 102.669 79.77 103.749C76.83 104.729 74.01 105.439 71.29 105.919C81.88 106.359 92.44 107.599 102.88 109.639L112.24 111.469C113.08 111.629 113.97 111.589 114.74 111.209C116.06 110.559 116.97 109.199 116.97 107.629L114.95 86.4485C113 66.0485 113 45.5085 114.95 25.1085Z" fill="#18355E"/>
<path d="M183.916 44.4506C189.925 48.2328 193.675 53.4529 195.248 60.0795H172.946C172.301 57.7977 170.929 56.016 168.873 54.7345C166.816 53.4529 164.235 52.8277 161.089 52.8277C157.379 52.8277 154.354 53.953 151.974 56.2036C149.595 58.4541 148.385 61.7675 148.385 66.081C148.385 70.3946 149.555 73.7079 151.974 75.9585C154.354 78.209 157.379 79.3343 161.089 79.3343C164.194 79.3343 166.816 78.7091 168.873 77.4275C170.929 76.1459 172.26 74.3643 172.946 72.0825H195.248C193.675 78.7091 189.925 83.8979 183.916 87.7113C177.906 91.4935 170.486 93.4002 161.613 93.4002C154.878 93.4002 148.909 92.3063 143.666 90.1182C138.464 87.9302 134.35 84.7419 131.406 80.6159C128.462 76.4898 126.97 71.6449 126.97 66.081C126.97 60.5172 128.422 55.6097 131.326 51.5149C134.229 47.4202 138.343 44.2631 143.586 42.0438C148.829 39.8245 154.838 38.7617 161.573 38.7617C170.445 38.7617 177.866 40.6685 183.875 44.4506H183.916Z" fill="#18355E"/>
<path d="M256.711 42.075C262.074 44.263 266.309 47.4513 269.414 51.5774C272.48 55.7034 274.052 60.5484 274.052 66.081C274.052 71.6136 272.52 76.4585 269.414 80.6158C266.349 84.7418 262.115 87.9302 256.711 90.1182C251.347 92.3062 245.217 93.4002 238.401 93.4002C231.585 93.4002 225.455 92.3062 220.051 90.1182C214.647 87.9302 210.372 84.7418 207.307 80.6158C204.242 76.4898 202.669 71.6449 202.669 66.081C202.669 60.5171 204.201 55.7034 207.307 51.5774C210.372 47.4513 214.647 44.263 220.051 42.075C225.455 39.887 231.585 38.793 238.401 38.793C245.217 38.793 251.306 39.887 256.711 42.075ZM228.238 56.2973C225.495 58.5479 224.124 61.8299 224.124 66.081C224.124 70.332 225.495 73.5828 228.238 75.8334C230.98 78.0527 234.368 79.178 238.401 79.178C242.434 79.178 245.781 78.0527 248.524 75.8334C251.226 73.6141 252.597 70.3633 252.597 66.081C252.597 61.7987 251.226 58.5479 248.524 56.2973C245.822 54.0468 242.434 52.9214 238.401 52.9214C234.368 52.9214 230.98 54.0468 228.238 56.2973Z" fill="#18355E"/>
<path d="M394.074 44.9508C398.913 48.983 401.333 54.6093 401.333 61.7986V92.7438H380.361V63.7054C380.361 60.3296 379.192 57.7039 376.853 55.8285C374.514 53.953 371.328 53.0152 367.295 53.0152C363.262 53.0152 359.793 54.0155 357.373 56.016C354.954 58.0165 353.744 60.8297 353.744 64.4556V92.7438H332.651V63.7054C332.651 60.3296 331.482 57.7039 329.183 55.8285C326.884 53.953 323.698 53.0152 319.705 53.0152C315.713 53.0152 312.204 54.0155 309.704 55.9847C307.244 57.954 305.993 60.7984 305.993 64.4868V92.775H284.901V39.4807H305.993V48.5454C307.808 45.5446 310.591 43.2003 314.301 41.4811C318.052 39.7619 322.408 38.8868 327.408 38.8868C332.409 38.8868 337.289 39.8245 341.322 41.6999C345.355 43.5754 348.38 46.2636 350.437 49.7645C352.816 46.4512 356.083 43.7942 360.237 41.825C364.391 39.8558 368.988 38.8555 373.989 38.8555C382.459 38.8555 389.113 40.8872 393.953 44.9195L394.074 44.9508Z" fill="#18355E"/>
<path d="M449.165 32.2008C445.697 32.2008 443.196 32.7634 441.664 33.9199C440.091 35.0765 439.244 36.9206 439.082 39.4525H451.544V53.2059H439.082V92.747H417.99V53.2059H409.722V39.4525H417.99V38.8899C417.99 32.2633 420.49 27.1683 425.451 23.5736C430.412 19.979 437.631 18.166 447.068 18.166C449.044 18.166 450.536 18.1973 451.504 18.2598V32.2946L449.165 32.2008Z" fill="#18355E"/>
<path d="M511.232 42.075C516.595 44.263 520.83 47.4513 523.936 51.5774C527.001 55.7034 528.573 60.5484 528.573 66.081C528.573 71.6136 527.041 76.4585 523.936 80.6158C520.87 84.7418 516.636 87.9302 511.232 90.1182C505.868 92.3062 499.738 93.4002 492.922 93.4002C486.106 93.4002 479.976 92.3062 474.572 90.1182C469.168 87.9302 464.893 84.7418 461.828 80.6158C458.763 76.4898 457.19 71.6449 457.19 66.081C457.19 60.5171 458.722 55.7034 461.828 51.5774C464.893 47.4513 469.168 44.263 474.572 42.075C479.976 39.887 486.106 38.793 492.922 38.793C499.738 38.793 505.827 39.887 511.232 42.075ZM482.759 56.2973C480.016 58.5479 478.645 61.8299 478.645 66.081C478.645 70.332 480.016 73.5828 482.759 75.8334C485.501 78.0527 488.889 79.178 492.922 79.178C496.955 79.178 500.302 78.0527 503.045 75.8334C505.747 73.6141 507.118 70.3633 507.118 66.081C507.118 61.7987 505.747 58.5479 503.045 56.2973C500.343 54.0468 496.955 52.9214 492.922 52.9214C488.889 52.9214 485.501 54.0468 482.759 56.2973Z" fill="#18355E"/>
<path d="M570.759 41.7312C574.913 39.8245 579.39 38.8555 584.269 38.8555V56.3285H578.22C572.614 56.3285 568.299 57.2663 565.234 59.1105C562.169 60.9547 560.596 64.0805 560.596 68.4565V92.7126H539.503V39.4182H560.596V49.4519C563.217 46.2011 566.605 43.6379 570.759 41.6999V41.7312Z" fill="#18355E"/>
<path d="M632.06 78.716V92.7508H622.583C614.517 92.7508 608.266 91.2191 603.789 88.1246C599.312 85.0301 597.054 79.9351 597.054 72.8084V53.241H587.818V39.4876H597.054V26.3906H618.146V39.4876H631.939V53.241H618.146V73.121C618.146 75.2152 618.711 76.6844 619.8 77.5283C620.929 78.341 622.784 78.7786 625.406 78.7786H632.06V78.716Z" fill="#18355E"/>
</svg>
