<svg width="463" height="106" viewBox="0 0 463 106" fill="none" xmlns="http://www.w3.org/2000/svg">
<path d="M105.2 52.59C105.2 66.7 99.64 79.51 90.61 88.96C81.03 98.97 67.54 105.2 52.6 105.2C37.66 105.2 24.23 99 14.66 89.03C5.58 79.58 0 66.74 0 52.6C0 23.55 23.55 0 52.6 0C81.65 0 105.21 23.55 105.21 52.6L105.2 52.59Z" fill="#18355E"/>
<path d="M51.5199 23.2305L14.6599 89.0205C24.2299 98.9905 37.6899 105.19 52.5999 105.19C67.5099 105.19 81.0299 98.9605 90.6099 88.9505L51.5299 23.2305H51.5199Z" fill="#1B3C6B"/>
<path d="M26.18 51.7898C27.5 51.7898 28.5701 50.7197 28.5701 49.3998C28.5701 48.0798 27.5 47.0098 26.18 47.0098C24.8601 47.0098 23.79 48.0798 23.79 49.3998C23.79 50.7197 24.8601 51.7898 26.18 51.7898Z" fill="white"/>
<path d="M28.0001 55.6798C28.0401 56.2298 28.0801 56.7898 28.1801 57.3398C31.2901 74.9198 49.7701 78.6698 64.7201 71.1698C67.0201 68.7298 69.9401 71.7198 67.6501 74.1098C55.1201 84.2198 30.1501 80.0198 24.6401 60.4698C24.1401 58.4398 23.8601 56.7098 23.8201 55.2798C23.7501 53.1198 26.6101 52.4398 27.7201 54.3898C27.8601 54.6398 27.9601 55.0698 28.0001 55.6898V55.6798Z" fill="white"/>
<path d="M73.9401 76.2092C74.1901 76.9892 73.9401 77.8492 73.3201 78.3892C72.4401 79.1592 71.5201 79.8792 70.5801 80.5592C60.4401 87.7492 46.7301 89.1592 34.9301 83.0492C18.1101 74.3292 11.5501 53.6292 20.2601 36.8192C26.3801 25.0192 38.3901 18.2592 50.8201 18.2892C51.9801 18.2892 53.1501 18.3592 54.3101 18.4792C55.1301 18.5692 55.8201 19.1192 56.0701 19.8992C56.5101 21.2992 55.3801 22.7092 53.9301 22.5492C53.3301 22.4892 52.7301 22.4392 52.1301 22.4092C40.7101 21.8792 29.4901 27.8692 23.8901 38.6892C16.2101 53.4992 22.0001 71.7291 36.8101 79.3991C47.6201 84.9991 60.2501 83.4392 69.2701 76.4192C69.7401 76.0492 70.2101 75.6692 70.6601 75.2692C71.7601 74.2992 73.5001 74.7992 73.9401 76.1992V76.2092Z" fill="white"/>
<path d="M53.61 38.3105C53.61 38.3105 53.61 38.3205 53.61 38.3305C53.61 39.2505 52.87 39.9905 51.95 39.9905C51.03 39.9905 50.3 39.2605 50.29 38.3505L43.23 38.4405L51.75 23.2305L60.66 38.2205L53.6 38.3105H53.61Z" fill="white"/>
<path d="M143.25 77.1191C141.611 77.1191 140.135 76.9731 138.821 76.6974C136.761 76.2756 134.733 75.5294 132.738 74.4425C130.743 73.3556 128.974 71.9605 127.401 70.2248C125.844 68.489 124.578 66.4613 123.637 64.1416C122.68 61.8218 122.21 59.1777 122.21 56.2253C122.21 53.2729 122.68 50.6936 123.637 48.3414C124.595 45.9893 125.844 43.9615 127.401 42.2258C128.958 40.49 130.743 39.0787 132.738 37.9756C134.733 36.8726 136.761 36.1101 138.821 35.6884C139.47 35.5424 140.184 35.4612 140.93 35.4126C141.676 35.3639 142.455 35.3477 143.25 35.3477C145.083 35.3477 146.916 35.591 148.733 36.0452C150.566 36.5157 152.318 37.2457 153.972 38.219C155.643 39.2085 157.184 40.49 158.612 42.096C160.039 43.6857 161.256 45.6161 162.229 47.871V47.8061C162.927 49.3959 162.489 50.6449 160.899 51.5372C159.958 51.9589 159.212 52.0238 158.644 51.7156C158.077 51.4074 157.606 50.9694 157.233 50.4178C156.487 48.6821 155.562 47.2059 154.459 45.9893C153.356 44.7726 152.188 43.7831 150.939 43.0369C149.69 42.2907 148.408 41.7553 147.062 41.4147C145.732 41.0902 144.45 40.928 143.234 40.928C142.714 40.928 142.147 40.9442 141.546 40.9929C140.93 41.0416 140.378 41.1065 139.859 41.2038L139.924 41.1389C138.513 41.4633 137.102 42.0149 135.674 42.7936C134.247 43.5722 132.933 44.5779 131.765 45.8108C130.597 47.0437 129.623 48.5361 128.877 50.2718C128.131 52.0076 127.758 53.9867 127.758 56.2415C127.758 58.4963 128.131 60.6214 128.877 62.3572C129.623 64.0929 130.58 65.5691 131.732 66.7857C132.884 68.0024 134.182 68.9757 135.642 69.7057C137.102 70.4357 138.529 70.9386 139.941 71.2143C141.06 71.4901 142.195 71.6361 143.315 71.6361C144.531 71.6361 145.813 71.4415 147.143 71.0684C148.473 70.6953 149.755 70.1113 150.971 69.3488C152.188 68.5702 153.34 67.5968 154.427 66.4289C155.514 65.2609 156.422 63.8496 157.168 62.2112C157.59 61.5948 158.109 61.1243 158.709 60.7999C159.326 60.4754 160.039 60.5403 160.883 61.0107H160.818C162.359 61.8543 162.862 63.0547 162.294 64.5958C161.353 66.802 160.153 68.6837 158.709 70.2734C157.249 71.847 155.676 73.1448 153.956 74.1667C152.237 75.1887 150.469 75.9512 148.603 76.454C146.754 76.9569 144.953 77.2002 143.217 77.2002L143.25 77.1191Z" fill="#18355E"/>
<path d="M189.482 77.0392C186.579 77.0392 183.853 76.5039 181.323 75.417C178.792 74.3463 176.57 72.8539 174.672 70.956C172.774 69.058 171.281 66.8518 170.211 64.3212C169.124 61.7906 168.589 59.0815 168.589 56.1778C168.589 53.2741 169.124 50.565 170.211 48.0344C171.298 45.5038 172.774 43.2976 174.672 41.3996C176.57 39.5017 178.792 38.0092 181.323 36.9386C183.853 35.868 186.579 35.3164 189.482 35.3164C192.386 35.3164 195.111 35.8517 197.642 36.9386C200.173 38.0255 202.395 39.5017 204.293 41.3996C206.191 43.2976 207.7 45.5038 208.803 48.0344C209.906 50.565 210.457 53.2741 210.457 56.1778C210.457 59.0815 209.906 61.7906 208.803 64.3212C207.7 66.8518 206.207 69.058 204.293 70.956C202.395 72.8539 200.173 74.3463 197.642 75.417C195.111 76.4876 192.386 77.0392 189.482 77.0392ZM189.482 40.8643C187.374 40.8643 185.395 41.2699 183.529 42.0647C181.68 42.8596 180.041 43.9465 178.646 45.3254C177.235 46.7042 176.132 48.3264 175.337 50.1757C174.542 52.025 174.137 54.0041 174.137 56.1129C174.137 58.2218 174.542 60.2171 175.337 62.0826C176.132 63.9481 177.235 65.5865 178.646 66.9654C180.058 68.3442 181.68 69.4473 183.529 70.2584C185.378 71.0695 187.357 71.4913 189.482 71.4913C191.608 71.4913 193.587 71.0858 195.468 70.2584C197.35 69.4473 198.989 68.3442 200.4 66.9654C201.811 65.5865 202.914 63.9643 203.709 62.0826C204.504 60.2171 204.909 58.2218 204.909 56.1129C204.909 54.0041 204.504 52.025 203.709 50.1757C202.914 48.3264 201.811 46.7204 200.4 45.3254C198.989 43.9465 197.35 42.8596 195.468 42.0647C193.587 41.2699 191.591 40.8643 189.482 40.8643Z" fill="#18355E"/>
<path d="M274.274 35.2525C277.178 35.2525 279.903 35.8041 282.434 36.9072C284.964 38.0103 287.187 39.5027 289.085 41.4006C290.983 43.2986 292.491 45.5048 293.595 48.0354C294.698 50.566 295.249 53.2589 295.249 56.1139V74.2338C295.249 74.9313 295.022 75.5802 294.552 76.1642C294.081 76.7482 293.4 77.0402 292.508 77.0402C290.626 77.0402 289.685 76.0993 289.685 74.2176V56.0653C289.685 53.9564 289.279 51.9773 288.485 50.1118C287.69 48.2625 286.587 46.6403 285.175 45.2615C283.764 43.8826 282.126 42.7957 280.244 41.9847C278.362 41.1898 276.367 40.7842 274.258 40.7842C272.149 40.7842 270.17 41.1898 268.305 41.9847C266.455 42.7795 264.817 43.8664 263.422 45.2615C262.01 46.6403 260.907 48.2625 260.112 50.1118C259.318 51.9611 258.912 53.9402 258.912 56.0653V74.2176C258.912 76.0993 258.004 77.0402 256.171 77.0402C254.337 77.0402 253.348 76.0993 253.348 74.2176V56.0653C253.348 53.9564 252.942 51.9773 252.115 50.1118C251.288 48.2625 250.185 46.6403 248.806 45.2615C247.427 43.8826 245.788 42.7957 243.907 41.9847C242.025 41.1898 240.03 40.7842 237.921 40.7842C235.812 40.7842 233.833 41.1898 231.967 41.9847C230.118 42.7795 228.496 43.8664 227.117 45.2615C225.738 46.6565 224.635 48.2625 223.84 50.1118C223.045 51.9611 222.64 53.9402 222.64 56.0653V74.2176C222.64 76.0993 221.699 77.0402 219.817 77.0402C217.935 77.0402 217.076 76.0993 217.076 74.2338V38.0589C217.076 36.1772 217.984 35.2525 219.817 35.2525C221.65 35.2525 222.64 36.1934 222.64 38.0589V42.0008C224.57 39.8433 226.825 38.1725 229.437 37.0045C232.032 35.8365 234.871 35.2525 237.921 35.2525C242.009 35.2525 245.594 36.1934 248.725 38.0589C251.839 39.9407 254.289 42.4551 256.073 45.5859C256.965 44.0935 258.068 42.6984 259.382 41.4331C260.696 40.1678 262.14 39.0809 263.714 38.1563C265.287 37.2478 266.958 36.5341 268.743 36.0149C270.527 35.4958 272.36 35.2363 274.226 35.2363L274.274 35.2525Z" fill="#18355E"/>
<path d="M342.52 40.669C343.266 42.2588 342.779 43.4592 341.044 44.2541H341.109C340.265 44.6759 339.535 44.7407 338.935 44.4325C338.318 44.1243 337.832 43.6863 337.459 43.1348C336.664 41.399 335.723 39.9228 334.636 38.7062C333.549 37.4895 332.381 36.5 331.116 35.7538C329.851 35.0076 328.553 34.456 327.239 34.1316C325.925 33.8072 324.627 33.645 323.362 33.645C322.843 33.645 322.324 33.6774 321.821 33.7585C321.302 33.8234 320.734 33.9045 320.134 34.0018H320.199C318.933 34.2776 317.652 34.7481 316.37 35.3807C315.072 36.0134 313.888 36.8407 312.785 37.8789C311.682 38.9171 310.709 40.1337 309.865 41.545C309.022 42.9563 308.438 44.5299 308.113 46.2656H326.898C328.731 46.2656 329.64 47.2065 329.64 49.0882C329.64 49.8344 329.413 50.4833 328.975 51.0186C328.52 51.5539 327.839 51.8297 326.898 51.8297H307.967V74.4107C307.967 76.2437 307.01 77.1522 305.112 77.1522C304.317 77.1522 303.668 76.8926 303.166 76.3735C302.663 75.8544 302.403 75.2055 302.403 74.4107V49.072C302.403 46.1196 302.874 43.4592 303.831 41.1233C304.788 38.7711 306.037 36.7434 307.594 35.0401C309.151 33.3205 310.936 31.9255 312.931 30.8224C314.926 29.7193 316.954 28.9568 319.014 28.5351C320.328 28.2593 321.788 28.1133 323.378 28.1133C325.211 28.1133 327.044 28.3404 328.861 28.8108C330.694 29.2812 332.446 30.0275 334.133 31.0657C335.82 32.1039 337.378 33.4179 338.805 35.0401C340.233 36.6623 341.465 38.6251 342.504 40.9124V40.7015L342.52 40.669Z" fill="#18355E"/>
<path d="M369.4 77.0392C366.496 77.0392 363.771 76.5039 361.24 75.417C358.709 74.3463 356.487 72.8539 354.589 70.956C352.691 69.058 351.199 66.8518 350.128 64.3212C349.041 61.7906 348.506 59.0815 348.506 56.1778C348.506 53.2741 349.041 50.565 350.128 48.0344C351.215 45.5038 352.691 43.2976 354.589 41.3996C356.487 39.5017 358.709 38.0092 361.24 36.9386C363.771 35.868 366.496 35.3164 369.4 35.3164C372.303 35.3164 375.029 35.8517 377.559 36.9386C380.09 38.0255 382.312 39.5017 384.21 41.3996C386.108 43.2976 387.617 45.5038 388.72 48.0344C389.823 50.565 390.375 53.2741 390.375 56.1778C390.375 59.0815 389.823 61.7906 388.72 64.3212C387.617 66.8518 386.125 69.058 384.21 70.956C382.312 72.8539 380.09 74.3463 377.559 75.417C375.029 76.4876 372.303 77.0392 369.4 77.0392ZM369.4 40.8643C367.291 40.8643 365.312 41.2699 363.446 42.0647C361.597 42.8596 359.959 43.9465 358.563 45.3254C357.152 46.7042 356.049 48.3264 355.254 50.1757C354.459 52.025 354.054 54.0041 354.054 56.1129C354.054 58.2218 354.459 60.2171 355.254 62.0826C356.049 63.9481 357.152 65.5865 358.563 66.9654C359.975 68.3442 361.597 69.4473 363.446 70.2584C365.296 71.0695 367.275 71.4913 369.4 71.4913C371.525 71.4913 373.504 71.0858 375.386 70.2584C377.267 69.4473 378.906 68.3442 380.317 66.9654C381.728 65.5865 382.831 63.9643 383.626 62.0826C384.421 60.2171 384.827 58.2218 384.827 56.1129C384.827 54.0041 384.421 52.025 383.626 50.1757C382.831 48.3264 381.728 46.7204 380.317 45.3254C378.906 43.9465 377.267 42.8596 375.386 42.0647C373.504 41.2699 371.509 40.8643 369.4 40.8643Z" fill="#18355E"/>
<path d="M416.346 35.1699C419.347 35.1699 422.299 35.9161 425.203 37.4247C428.107 38.9334 430.783 41.1558 433.233 44.1082C433.46 44.7246 433.492 45.3248 433.298 45.9413C433.103 46.5577 432.779 47.0443 432.308 47.4175H432.373C431.578 48.115 430.881 48.3746 430.297 48.1961C429.713 48.0015 429.08 47.5635 428.431 46.8659C426.922 44.9842 425.106 43.4918 422.981 42.4049C420.839 41.3018 418.649 40.7503 416.394 40.7503C415.551 40.7503 414.707 40.7989 413.864 40.8963C413.02 40.9936 412.177 41.172 411.333 41.464C408.089 42.5509 405.526 44.4164 403.628 47.0768C401.73 49.7372 400.773 52.7383 400.773 56.0638V74.3296C400.773 75.1245 400.529 75.7896 400.075 76.3087C399.605 76.8278 398.923 77.0874 398.031 77.0874C397.334 77.0874 396.685 76.8278 396.101 76.3087C395.517 75.7896 395.225 75.1407 395.225 74.3458V38.0412C395.225 36.2081 396.166 35.2997 398.047 35.2997C398.94 35.2997 399.621 35.5592 400.091 36.0783C400.562 36.5974 400.789 37.2463 400.789 38.0412V41.9182C403.141 39.4363 406.045 37.6032 409.516 36.4352C411.723 35.6404 413.994 35.2348 416.346 35.2348V35.1699ZM432.876 43.6215C433.022 43.8162 433.135 43.9946 433.233 44.1893L432.876 43.6215Z" fill="#18355E"/>
<path d="M459.95 35.3161C460.745 35.3161 461.41 35.5757 461.93 36.0785C462.449 36.5814 462.708 37.2303 462.708 38.0252C462.708 38.7714 462.449 39.4203 461.93 40.0043C461.41 40.5882 460.745 40.8802 459.934 40.8802H451.742V74.2974C451.742 76.1305 450.785 77.0389 448.887 77.0389C448.092 77.0389 447.443 76.7793 446.941 76.2602C446.438 75.7411 446.178 75.0922 446.178 74.2974V40.8802H438.083C436.25 40.8802 435.342 39.9394 435.342 38.0252C435.342 37.2303 435.569 36.5814 436.023 36.0785C436.477 35.5757 437.175 35.3161 438.116 35.3161H446.259V30.774C446.259 29.9629 446.519 29.314 447.022 28.7787C447.524 28.2433 448.173 28 448.968 28C450.866 28 451.823 28.9247 451.823 30.774V35.3161H459.967H459.95Z" fill="#18355E"/>
</svg>
